<?xml version="1.0" encoding="UTF-8" standalone="no"?><!DOCTYPE svg PUBLIC "-//W3C//DTD SVG 1.1//EN" "http://www.w3.org/Graphics/SVG/1.1/DTD/svg11.dtd"><svg width="100%" height="100%" viewBox="0 0 72 72" version="1.1" xmlns="http://www.w3.org/2000/svg" xmlns:xlink="http://www.w3.org/1999/xlink" xml:space="preserve" xmlns:serif="http://www.serif.com/" style="fill-rule:evenodd;clip-rule:evenodd;stroke-linecap:round;stroke-linejoin:bevel;stroke-miterlimit:1.5;"><rect id="Delete" x="0" y="0" width="72" height="72" style="fill:none;"/><path d="M29.886,36l-24.511,24.511c-1.247,1.247 -1.247,3.272 0,4.519l1.595,1.595c1.247,1.247 3.272,1.247 4.519,-0l24.511,-24.511l24.511,24.511c1.247,1.247 3.272,1.247 4.519,-0l1.595,-1.595c1.247,-1.247 1.247,-3.272 -0,-4.519l-24.511,-24.511l24.511,-24.511c1.247,-1.247 1.247,-3.272 -0,-4.519l-1.595,-1.595c-1.247,-1.247 -3.272,-1.247 -4.519,0l-24.511,24.511l-24.511,-24.511c-1.247,-1.247 -3.272,-1.247 -4.519,0l-1.595,1.595c-1.247,1.247 -1.247,3.272 0,4.519l24.511,24.511Z" style="fill:#e13629;stroke:#000;stroke-width:0.24px;"/></svg>